<?xml version="1.0"?><svg xmlns="http://www.w3.org/2000/svg"  viewBox="0 0 24 24" width="96px" height="96px">    <path d="M 14.896484 0.4765625 C 14.640234 0.4915625 14.390937 0.60554688 14.210938 0.81054688 C 13.340938 1.7905469 12.550859 2.8509375 11.880859 3.9609375 L 3.5996094 3.9609375 C 2.1996094 3.9609375 1.0605469 5.1 1.0605469 6.5 L 1.0605469 18.419922 C 1.0605469 19.819922 2.1996094 20.960938 3.5996094 20.960938 L 12.919922 20.960938 C 13.229922 21.780938 13.639141 22.580547 14.119141 23.310547 C 14.309141 23.610547 14.630937 23.769531 14.960938 23.769531 C 15.140937 23.769531 15.33 23.709609 15.5 23.599609 C 15.96 23.299609 16.089063 22.680703 15.789062 22.220703 C 15.529063 21.820703 15.289609 21.400938 15.099609 20.960938 L 20.470703 20.960938 C 21.860703 20.960938 23 19.819922 23 18.419922 L 23 6.5 C 23 5.1 21.860703 3.9609375 20.470703 3.9609375 L 14.259766 3.9609375 C 14.709766 3.3209375 15.189219 2.720625 15.699219 2.140625 C 16.069219 1.730625 16.029141 1.0904687 15.619141 0.73046875 C 15.414141 0.54546875 15.152734 0.4615625 14.896484 0.4765625 z M 13.039062 5.9609375 L 20.470703 5.9609375 C 20.760703 5.9609375 21 6.2 21 6.5 L 21 18.419922 C 21 18.644922 20.865625 18.836406 20.675781 18.917969 C 20.6125 18.945156 20.543203 18.960938 20.470703 18.960938 L 14.400391 18.960938 C 14.330391 18.680937 14.280234 18.399141 14.240234 18.119141 C 14.230234 18.049141 14.220703 17.979922 14.220703 17.919922 C 16.060703 17.739922 17.889844 17.269297 19.589844 16.529297 C 20.089844 16.299297 20.329609 15.710938 20.099609 15.210938 C 19.879609 14.700938 19.299063 14.469453 18.789062 14.689453 C 17.686563 15.176953 16.540859 15.530547 15.365234 15.748047 C 14.973359 15.820547 14.577188 15.877422 14.179688 15.919922 C 14.259688 14.959922 14.469922 14.150781 14.669922 13.550781 C 14.789922 13.190781 14.73 12.790469 14.5 12.480469 C 14.28 12.170469 13.919297 11.980469 13.529297 11.980469 L 10.939453 11.980469 C 11.229453 10.330469 11.729922 8.7194531 12.419922 7.1894531 C 12.609922 6.7694531 12.819063 6.3609375 13.039062 5.9609375 z M 6.9902344 8 L 7 8 C 7.55 8 8 8.4402344 8 8.9902344 L 8.0097656 10.949219 C 8.0097656 11.499219 7.5695313 11.960937 7.0195312 11.960938 L 7.0097656 11.960938 C 6.4597656 11.960938 6.0097656 11.510937 6.0097656 10.960938 L 6 9.0097656 C 6 8.4497656 6.4402344 8 6.9902344 8 z M 16.990234 8 C 16.440234 8 16 8.4597656 16 9.0097656 L 16.009766 10.900391 C 16.019766 11.450391 16.459766 11.890625 17.009766 11.890625 L 17.019531 11.890625 C 17.569531 11.890625 18.019766 11.440859 18.009766 10.880859 L 18 8.9902344 C 18 8.4402344 17.560234 8.01 16.990234 8 z M 5.8710938 14.580078 C 6.0007813 14.583047 6.1322656 14.612422 6.2597656 14.669922 C 8.0997656 15.479922 10.050547 15.930234 12.060547 15.990234 L 12.169922 15.990234 C 12.149922 16.300234 12.142891 16.623281 12.150391 16.957031 C 12.157891 17.290781 12.180703 17.635234 12.220703 17.990234 C 12.150703 18.000234 12.07 17.990234 12 17.990234 C 9.73 17.920234 7.5292187 17.420234 5.4492188 16.490234 C 4.9392188 16.270234 4.7194531 15.679922 4.9394531 15.169922 C 5.1119531 14.794922 5.4820312 14.571172 5.8710938 14.580078 z"/></svg>