<svg xmlns="http://www.w3.org/2000/svg"  viewBox="0 0 24 24" width="96px" height="96px"><path d="M 4 2 C 2.9069372 2 2 2.9069372 2 4 L 2 9 C 2 10.093063 2.9069372 11 4 11 L 9 11 C 10.093063 11 11 10.093063 11 9 L 11 4 C 11 2.9069372 10.093063 2 9 2 L 4 2 z M 15 2 C 13.906937 2 13 2.9069372 13 4 L 13 9 C 13 10.093063 13.906937 11 15 11 L 20 11 C 21.093063 11 22 10.093063 22 9 L 22 4 C 22 2.9069372 21.093063 2 20 2 L 15 2 z M 4 4 L 9 4 L 9 9 L 4 9 L 4 4 z M 15 4 L 20 4 L 20 9 L 15 9 L 15 4 z M 4 13 C 2.9069372 13 2 13.906937 2 15 L 2 20 C 2 21.093063 2.9069372 22 4 22 L 9 22 C 10.093063 22 11 21.093063 11 20 L 11 15 C 11 13.906937 10.093063 13 9 13 L 4 13 z M 15 13 C 13.906937 13 13 13.906937 13 15 L 13 20 C 13 21.093063 13.906937 22 15 22 L 20 22 C 21.093063 22 22 21.093063 22 20 L 22 15 C 22 13.906937 21.093063 13 20 13 L 15 13 z M 4 15 L 9 15 L 9 20 L 4 20 L 4 15 z M 15 15 L 20 15 L 20 20 L 15 20 L 15 15 z"/></svg>